<svg width="80" height="50" viewBox="0 0 80 71" fill="none" xmlns="http://www.w3.org/2000/svg">
<g clip-path="url(#clip0_2088_105763)">
<path d="M31.1948 22.375V0.5L53.2074 22.375H31.1948ZM39.9999 50.8125C39.9999 39.9434 48.8737 31.125 59.8112 31.125C70.7487 31.125 79.6225 39.9434 79.6225 50.8125C79.6225 61.6816 70.7487 70.5 59.8112 70.5C48.8737 70.5 39.9999 61.6816 39.9999 50.8125ZM62.0124 41.9395C62.0124 40.8594 61.0219 39.752 59.8112 39.752C58.6005 39.752 57.6099 40.8594 57.6099 41.9395V48.502H51.0061C49.7955 48.502 48.8049 49.6094 48.8049 50.6895C48.8049 52.0156 49.7955 52.877 51.0061 52.877H57.6099V59.4395C57.6099 60.7656 58.6005 61.627 59.8112 61.627C61.0219 61.627 62.0124 60.7656 62.0124 59.4395V52.877H68.6162C69.8269 52.877 70.8175 52.0156 70.8175 50.6895C70.8175 49.6094 69.8269 48.502 68.6162 48.502H62.0124V41.9395Z" fill="#D32F2F"/>
<path opacity="0.4" d="M0.377441 9.25C0.377441 4.41699 4.31907 0.5 9.18247 0.5H31.1951V22.375H53.2076V27.6523C43.0406 30.5098 35.5976 39.793 35.5976 50.8125C35.5976 58.8926 39.6011 66.0293 45.7371 70.4043C45.3106 70.459 44.8566 70.5 44.4026 70.5H9.18247C4.31907 70.5 0.377441 66.5762 0.377441 61.75V9.25Z" fill="#EF9A9A"/>
</g>
<defs>
<clipPath id="clip0_2088_105763">
<rect width="79.2453" height="70" fill="white"/>
</clipPath>
</defs>
</svg>
