<svg width="24" height="24" viewBox="0 0 24 24" fill="none" xmlns="http://www.w3.org/2000/svg">
<path d="M17.3587 14.6672C17.9712 14.3531 18.8212 14.0812 18.8212 14.0812C18.8212 14.0812 16.4025 14.4094 13.9962 14.5594C11.0525 14.7422 7.88999 14.7797 6.30249 14.6203C2.54624 14.2453 8.365 13.2094 8.365 13.2094C8.365 13.2094 6.10874 13.0969 3.32749 14.1C0.0462449 15.2906 11.4525 15.8344 17.3587 14.6672ZM12.0212 13.1625C10.8337 11.1609 6.8275 9.40312 12.0212 6.32812C18.5 2.49375 15.1775 0 15.1775 0C16.5212 3.96094 10.4525 5.16094 8.25875 7.62188C6.765 9.30469 8.99 11.1094 12.0212 13.1625ZM19.1837 4.90312C19.19 4.90312 8.23375 6.95625 13.465 11.475C15.0087 12.8063 13.0587 14.0062 13.0587 14.0062C13.0587 14.0062 16.9775 12.4875 15.1775 10.5891C13.4962 8.81719 12.2087 7.93594 19.1837 4.90312ZM18.8025 17.5828C18.7683 17.6275 18.7263 17.6685 18.6775 17.7047C26.6962 16.125 23.7462 12.1312 19.915 13.1437C19.7081 13.2008 19.5293 13.3038 19.4025 13.4391C19.6262 13.3783 19.8561 13.3313 20.09 13.2984C22.0275 12.9938 24.8087 15.2438 18.8025 17.5828ZM21.75 20.5031C21.75 20.5031 22.6562 21.0609 20.7562 21.4969C17.1375 22.3172 5.70624 22.5656 2.53124 21.5297C1.38749 21.1594 3.53124 20.6391 4.20624 20.5312C4.90624 20.4188 5.31249 20.4375 5.31249 20.4375C4.04374 19.7672 -2.89376 21.7547 1.78749 22.3219C14.5525 23.8781 25.0625 21.6234 21.75 20.5031ZM7.77749 18.5625C2.85875 19.5938 10.7712 21.7219 17.0337 19.7109C16.423 19.533 15.8334 19.3166 15.2712 19.0641C12.4775 19.4625 11.1837 19.4906 8.64625 19.275C6.5525 19.0969 7.77749 18.5625 7.77749 18.5625ZM19.015 23.1188C14.0962 23.8125 8.02749 23.7328 4.43374 23.2875C4.43374 23.2828 5.17125 23.7422 8.95875 23.925C14.7212 24.2016 23.5712 23.7703 23.7775 21.7266C23.7775 21.7266 23.3775 22.5 19.015 23.1188ZM16.29 16.5469C12.59 17.0812 10.4462 17.0672 7.73999 16.8563C5.64624 16.6922 7.01499 15.9328 7.01499 15.9328C1.58999 17.2828 10.0275 18.8109 17.6087 17.1469C17.1188 17.0171 16.6698 16.8128 16.29 16.5469Z" fill="#1976D2"/>
</svg>
