<svg width="23" height="24" viewBox="0 0 23 24" fill="none" xmlns="http://www.w3.org/2000/svg">
<rect width="23" height="24" fill="#F2F2F2"/>
<rect width="1440" height="1024" transform="translate(-496 -307)" fill="black" fill-opacity="0.5"/>
<g filter="url(#filter0_ddd_0_1)">
<rect x="-96" y="-139" width="640" height="272" rx="12" fill="#FAFAFA"/>
<g clip-path="url(#clip0_0_1)">
<path d="M11.3286 5.7797C11.3821 5.80314 11.425 5.85939 11.4893 5.85939C11.5482 5.85939 11.6393 5.84064 11.6446 5.78908C11.6554 5.72345 11.5429 5.68126 11.4732 5.65314C11.3821 5.62033 11.2643 5.60626 11.1786 5.64845C11.1571 5.65783 11.1357 5.68126 11.1464 5.70001C11.1625 5.76095 11.2696 5.75158 11.3286 5.7797ZM10.1554 5.85939C10.2196 5.85939 10.2625 5.80314 10.3161 5.7797C10.375 5.75158 10.4821 5.76095 10.5036 5.7047C10.5143 5.68595 10.4929 5.66251 10.4714 5.65314C10.3857 5.61095 10.2679 5.62501 10.1768 5.65783C10.1071 5.68595 9.99464 5.72814 10.0054 5.79376C10.0107 5.84064 10.1018 5.86408 10.1554 5.85939ZM22 18.9281C21.8071 18.7406 21.7161 18.3844 21.6143 18.0047C21.5179 17.625 21.4054 17.2172 21.0518 16.9547C20.9821 16.9031 20.9125 16.8563 20.8375 16.8188C20.7679 16.7813 20.6929 16.7484 20.6179 16.725C21.1107 15.4453 20.9179 14.1703 20.4196 13.0172C19.8089 11.6063 18.7429 10.3735 17.9286 9.5297C17.0125 8.52189 16.1232 7.56564 16.1393 6.1547C16.1661 4.00314 16.4125 0.00470106 12.0786 1.35551e-05C6.59286 -0.00936144 7.96428 4.84689 7.90536 6.33751C7.81428 7.43439 7.5625 8.29689 6.7 9.37033C5.6875 10.425 4.2625 12.1266 3.5875 13.9031C3.26607 14.7422 3.11607 15.5953 3.25536 16.4016C2.90714 16.6735 2.64464 17.0906 2.36607 17.3484C2.14107 17.55 1.81428 17.625 1.45536 17.7375C1.09643 17.85 0.705356 18.0188 0.464284 18.4172C0.351784 18.6 0.314284 18.7969 0.314284 18.9984C0.314284 19.1813 0.346427 19.3688 0.37857 19.5516C0.442856 19.9313 0.512498 20.2875 0.421427 20.5266C0.142856 21.2016 0.105356 21.6703 0.30357 22.0125C0.507141 22.3547 0.914284 22.5047 1.38036 22.5891C2.30714 22.7578 3.56607 22.7156 4.55714 23.175C5.61786 23.6625 6.69464 23.8359 7.55178 23.6625C8.17321 23.5406 8.68214 23.2125 8.93928 22.7156C9.60893 22.711 10.3482 22.4625 11.5268 22.4063C12.325 22.35 13.3268 22.6547 14.4786 22.5984C14.5107 22.7063 14.5536 22.8141 14.6125 22.9125V22.9172C15.0571 23.7 15.8875 24.0563 16.7714 23.9953C17.6607 23.9344 18.5982 23.4797 19.3589 22.6875C20.0875 21.9188 21.2875 21.6 22.0857 21.1781C22.4821 20.9672 22.8036 20.7047 22.8304 20.3203C22.8518 19.936 22.5946 19.5094 22 18.9281ZM11.4839 4.0922C12.0089 3.05158 13.3161 3.07033 13.8411 4.07345C14.1893 4.73908 14.0339 5.52189 13.6107 5.9672C13.525 5.9297 13.2946 5.84533 12.9357 5.73751C12.9946 5.68126 13.1018 5.61095 13.1446 5.52189C13.4018 4.96876 13.1339 4.25626 12.6571 4.2422C12.2661 4.21876 11.9125 4.74845 12.025 5.32033C11.8054 5.22658 11.5214 5.15626 11.3286 5.11408C11.275 4.79064 11.3125 4.4297 11.4839 4.0922ZM9.30357 3.55314C9.84464 3.55314 10.4179 4.21876 10.3268 5.12345C10.1393 5.17033 9.94643 5.24064 9.78036 5.33908C9.84464 4.92189 9.60357 4.39689 9.26607 4.42033C8.81607 4.45314 8.74107 5.41408 9.16964 5.73751C9.22321 5.77501 9.27143 5.72814 8.85357 5.99533C8.01786 5.31095 8.29107 3.55314 9.30357 3.55314ZM8.575 6.39845C8.90714 6.18283 9.30357 5.9297 9.33036 5.90626C9.58214 5.70001 10.0536 5.24064 10.825 5.24064C11.2054 5.24064 11.6607 5.34845 12.2125 5.65783C12.55 5.85001 12.8179 5.86408 13.4232 6.09376C13.8732 6.25783 14.1571 6.54845 13.9857 6.94689C13.8464 7.2797 13.3964 7.62189 12.7696 7.79533C12.175 7.96408 11.7089 8.54533 10.7232 8.49376C10.5143 8.48439 10.3482 8.44689 10.2089 8.39533C9.78036 8.23126 9.55536 7.90783 9.1375 7.6922C8.67678 7.4672 8.43036 7.2047 8.35 6.97501C8.275 6.74533 8.35 6.55314 8.575 6.39845ZM8.75178 22.0547C8.60714 23.7 6.4 23.6672 4.71786 22.8985C3.11607 22.1578 1.04286 22.5938 0.619641 21.8719C0.49107 21.6516 0.49107 21.2766 0.758927 20.6344V20.625C0.887498 20.2688 0.79107 19.875 0.726784 19.5047C0.662498 19.1391 0.630356 18.8016 0.774998 18.5672C0.962498 18.2531 1.23036 18.1406 1.56786 18.0375C2.11964 17.8641 2.2 17.8781 2.61786 17.5735C2.9125 17.3063 3.12678 16.9688 3.38393 16.7297C3.65714 16.4719 3.91964 16.35 4.33214 16.4063C4.76607 16.4625 5.14107 16.725 5.50536 17.1563L6.55536 18.825C7.06428 19.7578 8.86428 21.0938 8.75178 22.0547ZM8.67678 20.8406C8.45714 20.5313 8.1625 20.2031 7.90536 19.9219C8.28571 19.9219 8.66607 19.8188 8.8 19.5047C8.92321 19.2141 8.8 18.8063 8.40357 18.3375C7.68036 17.4844 6.35178 16.8141 6.35178 16.8141C5.62857 16.4203 5.22143 15.9375 5.03393 15.4125C4.84643 14.8875 4.87321 14.3203 5.01786 13.7625C5.29643 12.6891 6.01428 11.6438 6.475 10.9875C6.59821 10.9078 6.51786 11.1375 6.00893 11.9625C5.55357 12.7172 4.70178 14.461 5.86964 15.825C5.90178 14.8547 6.16428 13.8656 6.60893 12.9422C7.25178 11.6578 8.60714 9.43126 8.71428 7.65939C8.77321 7.69689 8.96071 7.80939 9.04643 7.85158C9.29286 7.97814 9.48036 8.16564 9.72143 8.33439C10.3857 8.80314 11.2482 8.76564 11.9929 8.39064C12.325 8.22658 12.5929 8.03908 12.8446 7.96876C13.375 7.82345 13.7982 7.56564 14.0393 7.26564C14.4518 8.69064 15.4161 10.7485 16.0321 11.7516C16.3589 12.286 17.0125 13.4156 17.2964 14.7797C17.4732 14.775 17.6714 14.7985 17.8804 14.8453C18.6196 13.1719 17.2536 11.3672 16.6321 10.8656C16.3804 10.65 16.3696 10.5563 16.4929 10.561C17.1679 11.086 18.0571 12.1406 18.3786 13.3266C18.5286 13.8703 18.5554 14.4375 18.4 15C19.2786 15.3188 20.3232 15.8391 20.0446 16.6313C19.9268 16.6266 19.8732 16.6313 19.8196 16.6313C19.9911 16.1578 19.6107 15.8063 18.5982 15.4078C17.5482 15.0047 16.6696 15.0047 16.5464 15.9938C15.8982 16.1906 15.5661 16.6828 15.4 17.2735C15.25 17.7985 15.2071 18.4313 15.1643 19.1438C15.1375 19.5047 14.9714 19.9875 14.8 20.5031C13.0804 21.5766 10.6911 22.0453 8.67678 20.8406ZM22.4661 20.3016C22.4179 21.0891 20.2589 21.2344 19.0804 22.4813C18.3732 23.2172 17.5054 23.625 16.7446 23.6766C15.9839 23.7281 15.325 23.4516 14.9393 22.7719C14.6875 22.2516 14.8107 21.6891 14.9982 21.0703C15.1964 20.4047 15.4911 19.7203 15.5286 19.1672C15.5714 18.4547 15.6196 17.8313 15.7536 17.3531C15.8929 16.8703 16.1071 16.5469 16.4875 16.3641C16.5036 16.3547 16.525 16.35 16.5411 16.3406C16.5839 16.9594 16.9321 17.5875 17.5482 17.7234C18.2232 17.8781 19.1929 17.3719 19.6054 16.9594C20.0875 16.9453 20.4464 16.9172 20.8161 17.1985C21.3464 17.5969 21.1964 18.6188 21.7321 19.1485C22.3 19.6922 22.4821 20.0625 22.4661 20.3016ZM8.78393 6.97033C8.89107 7.05939 9.03571 7.18126 9.2125 7.30314C9.56607 7.54689 10.0589 7.80001 10.675 7.80001C11.2964 7.80001 11.8804 7.52345 12.3786 7.29376C12.6411 7.17189 12.9625 6.96564 13.1714 6.80626C13.3804 6.64689 13.4875 6.51095 13.3375 6.49689C13.1875 6.48283 13.1982 6.61876 13.0161 6.73595C12.7804 6.88595 12.4964 7.08283 12.2714 7.19533C11.875 7.3922 11.2268 7.67345 10.6696 7.67345C10.1125 7.67345 9.66786 7.44845 9.33571 7.21876C9.16964 7.10158 9.03036 6.98439 8.92321 6.89533C8.84286 6.8297 8.82143 6.6797 8.69286 6.66564C8.61786 6.66095 8.59643 6.83908 8.78393 6.97033Z" fill="#1976D2"/>
</g>
<rect x="-71.5" y="-8.5" width="287" height="41" rx="3.5" stroke="#1976D2" stroke-opacity="0.5"/>
</g>
<defs>
<filter id="filter0_ddd_0_1" x="-150" y="-184" width="748" height="382" filterUnits="userSpaceOnUse" color-interpolation-filters="sRGB">
<feFlood flood-opacity="0" result="BackgroundImageFix"/>
<feColorMatrix in="SourceAlpha" type="matrix" values="0 0 0 0 0 0 0 0 0 0 0 0 0 0 0 0 0 0 127 0" result="hardAlpha"/>
<feMorphology radius="8" operator="dilate" in="SourceAlpha" result="effect1_dropShadow_0_1"/>
<feOffset dy="9"/>
<feGaussianBlur stdDeviation="23"/>
<feColorMatrix type="matrix" values="0 0 0 0 0 0 0 0 0 0 0 0 0 0 0 0 0 0 0.12 0"/>
<feBlend mode="normal" in2="BackgroundImageFix" result="effect1_dropShadow_0_1"/>
<feColorMatrix in="SourceAlpha" type="matrix" values="0 0 0 0 0 0 0 0 0 0 0 0 0 0 0 0 0 0 127 0" result="hardAlpha"/>
<feMorphology radius="3" operator="dilate" in="SourceAlpha" result="effect2_dropShadow_0_1"/>
<feOffset dy="24"/>
<feGaussianBlur stdDeviation="19"/>
<feColorMatrix type="matrix" values="0 0 0 0 0 0 0 0 0 0 0 0 0 0 0 0 0 0 0.14 0"/>
<feBlend mode="normal" in2="effect1_dropShadow_0_1" result="effect2_dropShadow_0_1"/>
<feColorMatrix in="SourceAlpha" type="matrix" values="0 0 0 0 0 0 0 0 0 0 0 0 0 0 0 0 0 0 127 0" result="hardAlpha"/>
<feMorphology radius="7" operator="erode" in="SourceAlpha" result="effect3_dropShadow_0_1"/>
<feOffset dy="11"/>
<feGaussianBlur stdDeviation="7.5"/>
<feColorMatrix type="matrix" values="0 0 0 0 0 0 0 0 0 0 0 0 0 0 0 0 0 0 0.2 0"/>
<feBlend mode="normal" in2="effect2_dropShadow_0_1" result="effect3_dropShadow_0_1"/>
<feBlend mode="normal" in="SourceGraphic" in2="effect3_dropShadow_0_1" result="shape"/>
</filter>
<clipPath id="clip0_0_1">
<rect width="24" height="24" fill="white" transform="translate(-0.5)"/>
</clipPath>
</defs>
</svg>
