<svg width="270" height="57" viewBox="0 0 270 57" fill="none" xmlns="http://www.w3.org/2000/svg">
<path d="M10.8139 13.4999L51.8463 36.4693V42.5808C51.8463 42.9758 51.629 43.3408 51.2762 43.5383L41.7746 48.8571V43.3574L0 19.9726V14.8346C0 14.4396 0.217343 14.0746 0.570162 13.8771L10.8139 8.14286V13.4999Z" fill="black"/>
<path d="M0 27.6857V41.2367C0 41.6524 0.21414 42.0365 0.56176 42.2443L24.9794 56.8441C25.327 57.052 25.7553 57.052 26.1029 56.8441L37.2645 50.1704L0 27.6857Z" fill="black"/>
<path d="M26.2911 0.143593C26.6315 -0.0478642 27.0508 -0.0478642 27.3911 0.143593L51.2964 13.5931C51.6367 13.7845 51.8463 14.1384 51.8463 14.5213V26.0571L16.202 5.81992L26.2911 0.143593Z" fill="black"/>
<path d="M87.0459 34.5627C87.0459 33.9133 86.9382 33.3343 86.7229 32.8256C86.5075 32.3169 86.1522 31.8623 85.6568 31.4618C85.1723 31.0505 84.5154 30.6717 83.6863 30.3253C82.868 29.9681 81.845 29.6164 80.6175 29.27C79.4438 28.9345 78.3831 28.5665 77.4355 28.166C76.488 27.7655 75.675 27.3055 74.9966 26.786C74.329 26.2665 73.8175 25.6604 73.4622 24.9677C73.1068 24.2641 72.9292 23.4469 72.9292 22.5161C72.9292 21.6069 73.123 20.7789 73.5106 20.0321C73.8983 19.2853 74.4421 18.6413 75.142 18.1001C75.8527 17.5589 76.6872 17.1422 77.6455 16.85C78.6146 16.5577 79.6753 16.4116 80.8274 16.4116C82.4749 16.4116 83.8963 16.7255 85.0915 17.3533C86.2975 17.981 87.229 18.8307 87.8858 19.9022C88.5534 20.9629 88.8872 22.1535 88.8872 23.474H86.9005C86.9005 22.4458 86.6583 21.5312 86.1737 20.7302C85.6999 19.9185 85.0108 19.2853 84.1063 18.8307C83.2125 18.3653 82.1196 18.1326 80.8274 18.1326C79.5353 18.1326 78.4477 18.3328 77.5648 18.7333C76.6926 19.1229 76.0303 19.6479 75.5781 20.3081C75.1366 20.9575 74.9158 21.6827 74.9158 22.4836C74.9158 23.0465 75.0235 23.566 75.2389 24.0422C75.4542 24.5077 75.8042 24.946 76.2888 25.3573C76.7841 25.7578 77.4355 26.1366 78.2431 26.4938C79.0507 26.8401 80.0468 27.1702 81.2312 27.4841C82.4803 27.8305 83.5894 28.2147 84.5585 28.6368C85.5276 29.059 86.346 29.546 87.0136 30.098C87.6812 30.6392 88.1873 31.2724 88.5319 31.9976C88.8764 32.7227 89.0487 33.567 89.0487 34.5303C89.0487 35.4936 88.8441 36.3595 88.435 37.1279C88.0366 37.8856 87.4712 38.5296 86.739 39.0599C86.0176 39.5903 85.1615 39.9962 84.1709 40.2776C83.191 40.559 82.1196 40.6997 80.9566 40.6997C79.9122 40.6997 78.8731 40.5644 77.8393 40.2938C76.8056 40.0232 75.858 39.6065 74.9966 39.0437C74.1459 38.4701 73.4622 37.7341 72.9453 36.8357C72.4392 35.9373 72.1862 34.8658 72.1862 33.6211H74.1567C74.1567 34.6169 74.3559 35.4557 74.7543 36.1376C75.1527 36.8195 75.6804 37.3715 76.3372 37.7936C77.0048 38.2157 77.737 38.5242 78.5339 38.719C79.3415 38.903 80.1491 38.995 80.9566 38.995C82.195 38.995 83.2664 38.811 84.1709 38.443C85.0861 38.075 85.7914 37.5609 86.2868 36.9006C86.7929 36.2296 87.0459 35.4503 87.0459 34.5627Z" fill="black"/>
<path d="M102.011 18.1488L93.8703 40.375H91.8029L100.686 16.7363H102.124L102.011 18.1488ZM109.408 40.375L101.252 18.1488L101.139 16.7363H102.576L111.476 40.375H109.408ZM107.955 32.03V33.751H95.4693V32.03H107.955Z" fill="black"/>
<path d="M133.418 16.7363V40.375H131.416L117.896 20.1782V40.375H115.91V16.7363H117.896L131.448 36.9331V16.7363H133.418Z" fill="black"/>
<path d="M146.8 40.375H141.47L141.503 38.6703H146.8C148.491 38.6703 149.945 38.2915 151.161 37.5338C152.389 36.7653 153.337 35.7046 154.004 34.3517C154.672 32.9987 155.006 31.4293 155.006 29.6434V27.4354C155.006 26.0717 154.812 24.8378 154.424 23.7338C154.047 22.6298 153.503 21.6881 152.793 20.9088C152.082 20.1187 151.231 19.5126 150.241 19.0905C149.261 18.6683 148.163 18.4573 146.946 18.4573H141.373V16.7363H146.946C148.41 16.7363 149.751 16.9907 150.968 17.4994C152.195 17.9973 153.256 18.7225 154.15 19.6749C155.054 20.6166 155.749 21.7476 156.233 23.0681C156.728 24.3886 156.976 25.8606 156.976 27.4841V29.6434C156.976 31.267 156.728 32.739 156.233 34.0594C155.749 35.3799 155.054 36.511 154.15 37.4526C153.245 38.3943 152.174 39.1195 150.935 39.6282C149.697 40.1261 148.319 40.375 146.8 40.375ZM142.359 16.7363V40.375H140.372V16.7363H142.359Z" fill="black"/>
<path d="M171.085 29.0103H164.463L164.43 27.3218H170.132C171.295 27.3218 172.286 27.154 173.104 26.8185C173.922 26.483 174.542 25.9851 174.961 25.3248C175.392 24.6538 175.608 23.8312 175.608 22.8571C175.608 21.8613 175.398 21.0387 174.978 20.3893C174.558 19.729 173.928 19.242 173.088 18.9281C172.248 18.6142 171.193 18.4573 169.922 18.4573H164.98V40.375H162.993V16.7363H169.922C171.117 16.7363 172.189 16.8554 173.136 17.0935C174.084 17.3316 174.891 17.705 175.559 18.2137C176.227 18.7225 176.733 19.3665 177.077 20.1458C177.433 20.9142 177.61 21.8342 177.61 22.9058C177.61 23.8799 177.395 24.762 176.964 25.5521C176.534 26.3314 175.925 26.97 175.139 27.4679C174.364 27.955 173.432 28.258 172.345 28.3771L171.085 29.0103ZM170.94 40.375H163.833L164.85 38.6703H170.94C172.103 38.6703 173.093 38.4755 173.912 38.0858C174.741 37.6853 175.376 37.1171 175.818 36.3811C176.259 35.6451 176.48 34.7684 176.48 33.751C176.48 32.8526 176.286 32.0463 175.898 31.3319C175.511 30.6176 174.918 30.0547 174.122 29.6434C173.325 29.2213 172.313 29.0103 171.085 29.0103H166.966L166.999 27.3218H172.829L173.185 27.9225C174.24 28.0307 175.161 28.3608 175.947 28.9128C176.744 29.454 177.357 30.1413 177.788 30.9747C178.23 31.8081 178.45 32.7227 178.45 33.7185C178.45 35.1472 178.133 36.3595 177.497 37.3552C176.873 38.3402 175.995 39.0924 174.865 39.6119C173.745 40.1206 172.436 40.375 170.94 40.375Z" fill="black"/>
<path d="M201.588 27.2893V29.822C201.588 31.478 201.373 32.9771 200.942 34.3192C200.522 35.6505 199.908 36.7924 199.101 37.7449C198.304 38.6973 197.346 39.4279 196.226 39.9366C195.106 40.4454 193.846 40.6997 192.446 40.6997C191.079 40.6997 189.829 40.4454 188.699 39.9366C187.579 39.4279 186.615 38.6973 185.808 37.7449C185 36.7924 184.376 35.6505 183.934 34.3192C183.493 32.9771 183.272 31.478 183.272 29.822V27.2893C183.272 25.6333 183.487 24.1396 183.918 22.8083C184.359 21.4662 184.984 20.3189 185.792 19.3665C186.599 18.414 187.563 17.6834 188.683 17.1747C189.803 16.666 191.046 16.4116 192.414 16.4116C193.814 16.4116 195.073 16.666 196.193 17.1747C197.313 17.6834 198.277 18.414 199.085 19.3665C199.892 20.3189 200.511 21.4662 200.942 22.8083C201.373 24.1396 201.588 25.6333 201.588 27.2893ZM199.618 29.822V27.2568C199.618 25.8606 199.456 24.6051 199.133 23.4902C198.821 22.3754 198.352 21.4229 197.728 20.6328C197.114 19.8427 196.36 19.2366 195.467 18.8145C194.573 18.3923 193.555 18.1813 192.414 18.1813C191.305 18.1813 190.309 18.3923 189.426 18.8145C188.543 19.2366 187.789 19.8427 187.164 20.6328C186.551 21.4229 186.077 22.3754 185.743 23.4902C185.42 24.6051 185.259 25.8606 185.259 27.2568V29.822C185.259 31.2291 185.42 32.4954 185.743 33.6211C186.077 34.7359 186.556 35.6938 187.181 36.4948C187.805 37.2849 188.559 37.891 189.442 38.3131C190.336 38.7352 191.337 38.9463 192.446 38.9463C193.598 38.9463 194.616 38.7352 195.499 38.3131C196.382 37.891 197.13 37.2849 197.744 36.4948C198.358 35.6938 198.821 34.7359 199.133 33.6211C199.456 32.4954 199.618 31.2291 199.618 29.822Z" fill="black"/>
<path d="M207.718 16.7363L214.34 26.7211L220.979 16.7363H223.337L215.552 28.3771L223.579 40.375H221.205L214.34 30.0656L207.476 40.375H205.117L213.145 28.3771L205.36 16.7363H207.718Z" fill="black"/>
<path d="M237.123 21.2335L231.05 40.375H225.429L234.135 16.7363H237.688L237.123 21.2335ZM242.162 40.375L236.073 21.2335L235.443 16.7363H239.045L247.783 40.375H242.162ZM241.904 31.5754V35.6667H229.644V31.5754H241.904Z" fill="black"/>
<path d="M263.313 36.6733L269.774 41.8199L266.479 44.6449L260.131 39.4983L263.313 36.6733ZM270 28.0361V29.0914C270 30.8881 269.752 32.5009 269.257 33.9296C268.762 35.3583 268.062 36.5759 267.157 37.5825C266.253 38.5891 265.181 39.363 263.943 39.9042C262.716 40.4345 261.353 40.6997 259.857 40.6997C258.36 40.6997 256.992 40.4345 255.754 39.9042C254.516 39.363 253.439 38.5891 252.524 37.5825C251.619 36.5759 250.919 35.3583 250.424 33.9296C249.929 32.5009 249.681 30.8881 249.681 29.0914V28.0361C249.681 26.2394 249.929 24.6267 250.424 23.198C250.919 21.7585 251.614 20.5354 252.508 19.5288C253.412 18.5222 254.483 17.7537 255.722 17.2234C256.96 16.6822 258.328 16.4116 259.824 16.4116C261.321 16.4116 262.689 16.6822 263.927 17.2234C265.165 17.7537 266.237 18.5222 267.141 19.5288C268.046 20.5354 268.746 21.7585 269.241 23.198C269.747 24.6267 270 26.2394 270 28.0361ZM264.654 29.0914V28.0037C264.654 26.8022 264.546 25.7415 264.331 24.8215C264.126 23.8907 263.814 23.1114 263.394 22.4836C262.985 21.8559 262.479 21.385 261.876 21.0712C261.273 20.7465 260.589 20.5841 259.824 20.5841C259.038 20.5841 258.344 20.7465 257.741 21.0712C257.148 21.385 256.648 21.8559 256.239 22.4836C255.84 23.1114 255.533 23.8907 255.318 24.8215C255.113 25.7415 255.011 26.8022 255.011 28.0037V29.0914C255.011 30.282 255.113 31.3427 255.318 32.2736C255.533 33.1936 255.846 33.9729 256.255 34.6115C256.664 35.25 257.17 35.7317 257.773 36.0564C258.376 36.3811 259.071 36.5435 259.857 36.5435C260.621 36.5435 261.3 36.3811 261.892 36.0564C262.495 35.7317 263.001 35.25 263.41 34.6115C263.819 33.9729 264.126 33.1936 264.331 32.2736C264.546 31.3427 264.654 30.282 264.654 29.0914Z" fill="black"/>
</svg>
