<svg width="25" height="24" viewBox="0 0 25 24" fill="none" xmlns="http://www.w3.org/2000/svg">
<g clip-path="url(#clip0_2557_68958)">
<path d="M12.5 24C19.1274 24 24.5 18.6274 24.5 12C24.5 5.37258 19.1274 0 12.5 0C5.87258 0 0.5 5.37258 0.5 12C0.5 18.6274 5.87258 24 12.5 24Z" fill="#2196F3"/>
<path d="M18.9266 9.26914H17.0375C17.0024 9.26914 16.9672 9.25039 16.9508 9.21992L15.4344 6.59023C15.4156 6.55977 15.3828 6.54102 15.3453 6.54102H9.15782C9.12267 6.54102 9.08751 6.55977 9.07111 6.59023L7.49376 9.31836L5.97501 11.948C5.95861 11.9785 5.95861 12.016 5.97501 12.0488L7.49376 14.6785L9.06876 17.409C9.08517 17.4395 9.12032 17.4605 9.15548 17.4582H15.3453C15.3805 17.4582 15.4156 17.4395 15.4344 17.409L16.9531 14.7793C16.9695 14.7488 17.0047 14.7277 17.0399 14.7301H18.9289C18.9922 14.7301 19.0414 14.6785 19.0414 14.6176V9.38398C19.0391 9.3207 18.9875 9.26914 18.9266 9.26914ZM11.6914 14.7793L11.2156 15.5996C11.2086 15.6113 11.1969 15.623 11.1852 15.6301C11.1711 15.6371 11.157 15.6418 11.1406 15.6418H10.1961C10.1633 15.6418 10.1328 15.6254 10.1188 15.5949L8.71017 13.1504L8.57189 12.909L8.06564 12.0441C8.05861 12.0324 8.05392 12.0184 8.05626 12.002C8.05626 11.9879 8.06095 11.9715 8.06798 11.9598L8.57657 11.0785L10.1211 8.40664C10.1375 8.37852 10.168 8.35977 10.1984 8.35977H11.1406C11.157 8.35977 11.1734 8.36445 11.1899 8.37148C11.2016 8.37852 11.2133 8.38789 11.2203 8.40195L11.6961 9.22695C11.7102 9.25508 11.7078 9.29023 11.6914 9.31602L10.1656 11.9598C10.1586 11.9715 10.1563 11.9855 10.1563 11.9973C10.1563 12.0113 10.1609 12.023 10.1656 12.0348L11.6914 14.6762C11.7125 14.7113 11.7102 14.7488 11.6914 14.7793ZM16.4281 12.0441L15.9219 12.909L15.7836 13.1504L14.375 15.5949C14.3586 15.623 14.3305 15.6418 14.2977 15.6418H13.3531C13.3367 15.6418 13.3227 15.6371 13.3086 15.6301C13.2969 15.623 13.2852 15.6137 13.2781 15.5996L12.8024 14.7793C12.7813 14.7488 12.7813 14.7113 12.8 14.6809L14.3258 12.0395C14.3328 12.0277 14.3352 12.0137 14.3352 12.002C14.3352 11.9879 14.3305 11.9762 14.3258 11.9645L12.8 9.3207C12.7836 9.29258 12.7813 9.25977 12.7953 9.23164L13.2711 8.40664C13.2781 8.39492 13.2899 8.3832 13.3016 8.37617C13.3156 8.3668 13.332 8.36445 13.3508 8.36445H14.2977C14.3305 8.36445 14.3609 8.38086 14.375 8.41133L15.9195 11.0832L16.4281 11.9645C16.4352 11.9785 16.4399 11.9926 16.4399 12.0066C16.4399 12.016 16.4352 12.0301 16.4281 12.0441Z" fill="white"/>
</g>
<defs>
<clipPath id="clip0_2557_68958">
<rect width="24" height="24" fill="white" transform="translate(0.5)"/>
</clipPath>
</defs>
</svg>
